<svg width="160" height="144" viewBox="0 0 160 144" fill="none" xmlns="http://www.w3.org/2000/svg">
<g clip-path="url(#clip0_244_5542)">
<path d="M131.978 67.0369C131.978 43.6554 113.024 24.7009 89.642 24.7009C66.2605 24.7009 47.306 43.6554 47.306 67.0369C47.306 90.4185 66.2605 109.373 89.642 109.373C113.024 109.373 131.978 90.4185 131.978 67.0369Z" fill="#00ACEE"/>
<path d="M132.625 115.791C134.932 116.044 139.849 118.678 141.79 121.591C143.731 124.504 144.833 129.539 144.99 131.803" stroke="#00ACEE" stroke-width="2" stroke-linecap="round" stroke-linejoin="round"/>
<path d="M40.453 86.928C37.785 90 30.803 95.514 24.203 92.992C15.956 89.839 16.203 84.992 18.867 83.048C21.531 81.104 25.173 84.259 25.903 86.928C26.633 89.597 25.418 98.57 18.869 101.966C12.32 105.362 3.58801 103.666 1.40601 101.966" stroke="#00ACEE" stroke-width="2" stroke-linecap="round" stroke-linejoin="round"/>
<path d="M145.598 1.06595C142.445 0.665948 135.848 2.52095 134.683 13.1929C133.518 23.8649 124.173 26.0489 119.643 25.8059" stroke="#00ACEE" stroke-width="2" stroke-linecap="round" stroke-linejoin="round"/>
<path d="M83.222 14.6479C85.9012 14.6479 88.073 12.4761 88.073 9.79692C88.073 7.11779 85.9012 4.94592 83.222 4.94592C80.5429 4.94592 78.371 7.11779 78.371 9.79692C78.371 12.4761 80.5429 14.6479 83.222 14.6479Z" fill="#00ACEE"/>
<path d="M98.017 21.8909C99.6153 21.8909 100.911 20.5952 100.911 18.9969C100.911 17.3986 99.6153 16.1029 98.017 16.1029C96.4187 16.1029 95.123 17.3986 95.123 18.9969C95.123 20.5952 96.4187 21.8909 98.017 21.8909Z" fill="#00ACEE"/>
<path d="M154.087 68.717C156.967 68.717 159.302 66.3822 159.302 63.502C159.302 60.6218 156.967 58.287 154.087 58.287C151.207 58.287 148.872 60.6218 148.872 63.502C148.872 66.3822 151.207 68.717 154.087 68.717Z" fill="#00ACEE"/>
<path d="M45.668 127.899C48.5482 127.899 50.883 125.564 50.883 122.684C50.883 119.804 48.5482 117.469 45.668 117.469C42.7878 117.469 40.453 119.804 40.453 122.684C40.453 125.564 42.7878 127.899 45.668 127.899Z" fill="#00ACEE"/>
<path d="M110.671 143.179C113.551 143.179 115.886 140.844 115.886 137.964C115.886 135.084 113.551 132.749 110.671 132.749C107.791 132.749 105.456 135.084 105.456 137.964C105.456 140.844 107.791 143.179 110.671 143.179Z" fill="#00ACEE"/>
<path d="M94.541 135.644C96.1399 135.644 97.436 134.348 97.436 132.749C97.436 131.15 96.1399 129.854 94.541 129.854C92.9421 129.854 91.646 131.15 91.646 132.749C91.646 134.348 92.9421 135.644 94.541 135.644Z" fill="#00ACEE"/>
<path d="M84.599 82.9245H94.099V92.4245H84.599V82.9245ZM84.599 44.9395H94.099V73.4285H84.599V44.9395Z" fill="white"/>
<path d="M47.2224 29.2695C44.9016 29.2764 39.7206 27.2094 37.4657 24.532C35.2108 21.8546 33.5521 16.9746 33.1426 14.7424" stroke="#00ACEE" stroke-width="2" stroke-linecap="round" stroke-linejoin="round"/>
</g>
<defs>
<clipPath id="clip0_244_5542">
<rect width="159.302" height="143.179" fill="white"/>
</clipPath>
</defs>
</svg>
