<svg width="201" height="130" viewBox="0 0 201 130" fill="none" xmlns="http://www.w3.org/2000/svg">
<g clip-path="url(#clip0_374_3381)">
<path d="M200.5 60.9741C200.5 66.141 198.55 71.1177 195.04 74.9092C191.53 78.7008 186.718 81.0277 181.566 81.425C181.393 81.4381 181.217 81.4513 181.04 81.4592V61.9918C181.041 61.7972 180.997 61.605 180.914 61.4294C180.83 61.2538 180.708 61.0991 180.557 60.9767C180.539 60.9588 180.52 60.9429 180.499 60.9294C180.48 60.9138 180.459 60.8998 180.438 60.8873C180.254 60.7684 180.042 60.6977 179.823 60.6816C179.604 60.6655 179.384 60.7046 179.184 60.7953L178.966 60.3167C179.204 60.208 179.463 60.1515 179.726 60.151L164.747 47.2472C164.863 47.1158 164.984 46.9869 165.105 46.858C167.928 43.8813 171.58 41.8199 175.588 40.94C179.595 40.06 183.775 40.4022 187.586 41.9221C191.397 43.442 194.665 46.0699 196.967 49.4661C199.269 52.8624 200.5 56.8711 200.5 60.9741Z" fill="#F2F2F2"/>
<path d="M5.70076 74.9602C5.62627 74.5796 5.63613 74.1873 5.72965 73.811C5.82316 73.4346 5.99806 73.0834 6.24202 72.7819C6.48597 72.4805 6.79305 72.2362 7.14163 72.0663C7.49021 71.8964 7.87181 71.8049 8.25955 71.7984L20.0831 57.7236L23.0349 61.4976L10.985 74.5967C10.9528 75.2488 10.6824 75.8664 10.2252 76.3324C9.76801 76.7985 9.15572 77.0807 8.50437 77.1255C7.85302 77.1703 7.20786 76.9746 6.69114 76.5756C6.17442 76.1765 5.82203 75.6017 5.70076 74.9602Z" fill="#FFB8B8"/>
<path d="M61.8465 57.6366C61.7638 57.7563 61.6906 57.8823 61.6276 58.0135L48.7175 59.8589L46.7571 57.37L42.6143 59.8377L46.5085 65.9093L62.2537 61.2679C62.6692 61.644 63.1894 61.8848 63.745 61.958C64.3007 62.0313 64.8655 61.9337 65.3643 61.6782C65.8631 61.4227 66.2723 61.0214 66.5375 60.5276C66.8027 60.0339 66.9113 59.4711 66.8488 58.9141C66.7864 58.3572 66.5558 57.8324 66.1879 57.4097C65.8199 56.9869 65.332 56.6862 64.7889 56.5475C64.2459 56.4088 63.6735 56.4387 63.1479 56.6333C62.6223 56.8278 62.1684 57.1778 61.8465 57.6366Z" fill="#FFB8B8"/>
<path d="M39.7939 104.663L42.0786 106.938L51.9398 99.2085L48.5681 95.8512L39.7939 104.663Z" fill="#FFB8B8"/>
<path d="M44.3723 113.446L37.1923 106.297L39.9545 103.523L44.3604 107.91C44.7247 108.273 45.014 108.703 45.2118 109.178C45.4095 109.653 45.5119 110.161 45.513 110.675C45.5141 111.19 45.4139 111.699 45.2182 112.174C45.0225 112.65 44.7351 113.082 44.3723 113.446Z" fill="#2F2E41"/>
<path d="M27.6502 126.482H30.8742L32.4078 114.046H27.6497L27.6502 126.482Z" fill="#FFB8B8"/>
<path d="M37.0918 129.475L26.9595 129.475L26.9593 125.561L33.1769 125.56C33.691 125.56 34.2 125.661 34.675 125.858C35.15 126.055 35.5815 126.343 35.9451 126.707C36.3086 127.07 36.597 127.502 36.7937 127.977C36.9905 128.452 37.0918 128.961 37.0918 129.475Z" fill="#2F2E41"/>
<path d="M26.9494 116.877L23.2772 89.7952C22.7025 85.7024 22.8808 81.539 23.8034 77.5103C24.557 74.2728 25.575 72.0301 26.8293 70.845C27.0273 70.6593 27.2807 70.5435 27.5507 70.5156L39.6751 69.2526C39.9087 69.2287 40.1442 69.2718 40.3542 69.3767C40.5642 69.4817 40.74 69.6442 40.8611 69.8453L41.2597 70.5094C41.3081 70.5901 41.3471 70.676 41.376 70.7655L43.9394 78.7123C43.9777 78.8324 44.0394 78.9436 44.1211 79.0396C44.2027 79.1356 44.3026 79.2144 44.415 79.2715C48.451 81.332 61.5613 88.2879 60.811 91.289C60.106 94.1089 53.506 98.681 51.4999 100.015C51.2957 100.152 51.0551 100.224 50.8093 100.222C50.5636 100.22 50.3241 100.144 50.122 100.004L46.792 97.7262C46.6294 97.615 46.4958 97.4664 46.4024 97.293C46.309 97.1195 46.2585 96.9262 46.255 96.7293C46.2516 96.5323 46.2953 96.3374 46.3826 96.1608C46.4699 95.9842 46.5982 95.831 46.7568 95.7142L49.0532 94.0221C49.1937 93.9185 49.3034 93.7786 49.3703 93.6173C49.4372 93.4561 49.4589 93.2796 49.433 93.107C49.4071 92.9343 49.3347 92.772 49.2234 92.6375C49.1122 92.5029 48.9663 92.4013 48.8016 92.3434L36.4689 88.0161C36.3304 87.9675 36.1826 87.9513 36.0369 87.9688C35.8912 87.9862 35.7514 88.0369 35.6283 88.1168C35.5052 88.1967 35.4021 88.3038 35.3269 88.4298C35.2517 88.5558 35.2063 88.6974 35.1944 88.8437L32.9205 116.636C32.8954 116.934 32.7632 117.213 32.5484 117.421C32.3336 117.629 32.0508 117.752 31.7521 117.768L28.2338 117.944C28.2124 117.945 28.1912 117.945 28.1699 117.945C27.8713 117.946 27.5826 117.839 27.3578 117.642C27.1331 117.445 26.9879 117.173 26.9494 116.877Z" fill="#2F2E41"/>
<path d="M32.51 46.8303C36.077 46.8303 38.9687 43.9387 38.9687 40.3716C38.9687 36.8045 36.077 33.9129 32.51 33.9129C28.9429 33.9129 26.0513 36.8045 26.0513 40.3716C26.0513 43.9387 28.9429 46.8303 32.51 46.8303Z" fill="#FFB8B8"/>
<path d="M26.4688 69.7387L21.7146 52.3921L21.796 52.3372C21.8981 52.2684 32.1454 45.5019 44.143 50.9548L44.3605 51.0796L41.5434 69.0841C41.4819 69.495 41.279 69.8716 40.9697 70.1489C40.6603 70.4262 40.2639 70.5869 39.8488 70.6032L28.2565 71.0491C28.2331 71.0499 28.2098 71.0504 28.1866 71.0504C27.7959 71.0513 27.4157 70.9232 27.1051 70.6861C26.7945 70.4489 26.5709 70.1159 26.4688 69.7387Z" fill="#CCCCCC"/>
<path d="M21.5337 63.685L17.5741 59.1317C17.3834 58.9129 17.2761 58.6338 17.2709 58.3437C17.2658 58.0535 17.3633 57.7708 17.5462 57.5454L21.6854 52.4321L24.863 53.2987L26.5476 59.1949L23.4759 63.583C23.3688 63.737 23.2278 63.8644 23.0637 63.9553C22.8997 64.0463 22.7169 64.0984 22.5296 64.1077C22.5074 64.1087 22.4854 64.1093 22.4634 64.1093C22.287 64.1096 22.1126 64.0719 21.9522 63.9987C21.7918 63.9255 21.649 63.8185 21.5337 63.685Z" fill="#CCCCCC"/>
<path d="M43.4296 62.7364C43.2423 62.7272 43.0595 62.6751 42.8955 62.5841C42.7314 62.4932 42.5904 62.3658 42.4832 62.2118L39.4116 57.8237L40.8891 51.617L43.8147 50.8191L44.3606 51.0796L48.413 56.1742C48.5959 56.3996 48.6934 56.6823 48.6882 56.9725C48.6831 57.2626 48.5757 57.5417 48.385 57.7605L44.4255 62.3138C44.3102 62.4473 44.1674 62.5543 44.007 62.6275C43.8465 62.7007 43.6722 62.7384 43.4958 62.7381C43.4739 62.738 43.4517 62.7375 43.4296 62.7364Z" fill="#CCCCCC"/>
<path d="M181.041 60.7032C181.043 60.7687 181.02 60.8326 180.977 60.8821C180.932 60.9351 180.868 60.9679 180.798 60.9733C180.728 60.9787 180.66 60.9563 180.607 60.911L179.726 60.151L164.747 47.2472L122.736 11.0499C122.496 10.8448 122.191 10.7322 121.875 10.7327C121.56 10.7332 121.255 10.8467 121.016 11.0526L64.4413 60.2036L63.9311 60.6454C63.9115 60.6627 63.8893 60.6769 63.8654 60.6875C63.8233 60.7061 63.777 60.7134 63.7312 60.7085C63.6655 60.7015 63.6047 60.6706 63.5603 60.6217C63.5375 60.5958 63.52 60.5657 63.5088 60.5331C63.4976 60.5004 63.493 60.4659 63.4952 60.4314C63.4974 60.397 63.5063 60.3633 63.5216 60.3323C63.5368 60.3014 63.558 60.2737 63.5839 60.2509L63.6549 60.1878L120.671 10.6555C121.006 10.3677 121.433 10.2091 121.875 10.2081C122.316 10.2071 122.744 10.3639 123.08 10.6502L165.105 46.8581L180.948 60.5113C180.976 60.5352 180.999 60.5647 181.014 60.5977C181.03 60.6307 181.039 60.6666 181.041 60.7032Z" fill="#3F3D56"/>
<path d="M149.098 68.4686L148.406 66.5648L146.024 59.9906L140.891 45.8351L135.153 30.0124L124.805 1.47269C124.602 0.916139 124.187 0.46279 123.65 0.211918C123.113 -0.038955 122.499 -0.0669039 121.941 0.134191L62.114 21.8263C61.5573 22.0293 61.1038 22.4447 60.8529 22.9815C60.602 23.5183 60.5742 24.1327 60.7756 24.69L75.4465 65.15L75.6962 65.8416L91.0955 72.8207L95.4239 74.7824L96.126 75.1006L114.452 83.4077L115.162 83.15L127.182 78.7927L145.314 72.2185L147.757 71.3323C148.314 71.1296 148.768 70.7143 149.019 70.1776C149.271 69.6408 149.299 69.0263 149.098 68.4686Z" fill="#E6E6E6"/>
<path d="M124.011 34.7668C123.712 33.9478 123.101 33.2804 122.312 32.9112C121.522 32.542 120.618 32.501 119.798 32.7972L96.1259 41.3831L84.6949 45.5274C84.2887 45.6742 83.9154 45.8996 83.5964 46.1908C83.2774 46.4819 83.019 46.8331 82.8358 47.2242C82.6526 47.6153 82.5482 48.0387 82.5287 48.4701C82.5093 48.9015 82.575 49.3326 82.7222 49.7386C82.8694 50.1446 83.0952 50.5177 83.3866 50.8364C83.6781 51.1551 84.0295 51.4132 84.4208 51.5961C84.8121 51.7789 85.2356 51.8828 85.667 51.9018C86.0985 51.9209 86.5295 51.8547 86.9354 51.7071L96.1259 48.3753L122.041 38.9796C122.86 38.6811 123.528 38.07 123.897 37.2803C124.266 36.4906 124.307 35.5867 124.011 34.7668Z" fill="white"/>
<path d="M128.179 46.2637C127.881 45.4447 127.27 44.7774 126.48 44.4081C125.69 44.0389 124.786 43.9979 123.966 44.2941L119.956 45.7483L96.1261 54.3894L88.863 57.0217C88.044 57.3194 87.3766 57.9301 87.0076 58.7195C86.6385 59.509 86.598 60.4127 86.895 61.2321C87.1919 62.0514 87.802 62.7193 88.5911 63.0891C89.3802 63.4589 90.2839 63.5002 91.1035 63.204L96.1261 61.3817L126.21 50.4738C126.278 50.4502 126.344 50.4212 126.409 50.3923C127.173 50.0572 127.781 49.4442 128.11 48.6775C128.438 47.9109 128.463 47.048 128.179 46.2637Z" fill="white"/>
<path d="M132.392 57.8816C132.094 57.0627 131.483 56.3953 130.694 56.0261C129.905 55.6568 129.001 55.6158 128.182 55.912L116.935 59.9906L108.228 63.1488L96.1259 67.5351L93.0756 68.6422C92.3707 68.899 91.7745 69.3888 91.3857 70.0305C90.9969 70.6722 90.8388 71.4274 90.9376 72.1712C90.9678 72.3925 91.0206 72.6102 91.0954 72.8207L95.4239 74.7824L96.126 74.5274H96.1312L118.092 66.5647L130.422 62.0943C131.242 61.7965 131.909 61.1855 132.279 60.3956C132.648 59.6057 132.689 58.7015 132.392 57.8816Z" fill="white"/>
<path d="M107.744 23.4645C107.445 22.6455 106.834 21.9782 106.045 21.6089C105.255 21.2397 104.351 21.1987 103.531 21.4949L89.9358 26.4229C89.1167 26.7206 88.4494 27.3313 88.0803 28.1208C87.7113 28.9103 87.6708 29.814 87.9677 30.6333C88.2646 31.4526 88.8747 32.1205 89.6639 32.4903C90.453 32.8601 91.3567 32.9014 92.1763 32.6053L96.4785 31.0459L99.3263 30.0124L105.774 27.6746C106.593 27.3768 107.261 26.7662 107.63 25.9769C107.999 25.1876 108.04 24.2841 107.744 23.4645Z" fill="white"/>
<path d="M161.999 30.0124H98.3612C97.9858 30.0128 97.6166 30.1077 97.2876 30.2883C96.9586 30.4689 96.6803 30.7294 96.4784 31.0459C96.2477 31.4042 96.1253 31.8215 96.126 32.2476V75.1006L114.452 83.4077L117.035 84.5779L121.113 86.4266C121.352 86.5345 121.611 86.5903 121.873 86.5903C122.135 86.5903 122.394 86.5345 122.633 86.4266L126.712 84.5779L139.476 78.7927L151.373 73.3992L164.234 67.5719V32.2476C164.234 31.6549 163.998 31.0866 163.579 30.6675C163.16 30.2484 162.592 30.0128 161.999 30.0124Z" fill="#00ACEE"/>
<path d="M148.851 59.9906H111.509C110.66 59.9911 109.844 60.3202 109.233 60.9089C108.621 61.4977 108.261 62.3004 108.228 63.1488C108.223 63.1916 108.222 63.2346 108.222 63.2777C108.224 64.1491 108.57 64.9845 109.187 65.6006C109.803 66.2168 110.638 66.5635 111.509 66.5647H148.851C149.722 66.5647 150.559 66.2184 151.175 65.602C151.791 64.9855 152.138 64.1495 152.138 63.2777C152.138 62.4059 151.791 61.5698 151.175 60.9533C150.559 60.3369 149.722 59.9906 148.851 59.9906Z" fill="white"/>
<path d="M150.978 73.0021C150.385 72.4951 149.631 72.2171 148.851 72.2185H111.509C110.638 72.2185 109.802 72.5648 109.185 73.1813C108.569 73.7977 108.222 74.6338 108.222 75.5056C108.222 76.3774 108.569 77.2135 109.185 77.8299C109.802 78.4464 110.638 78.7927 111.509 78.7927H139.476L151.373 73.3992C151.253 73.256 151.121 73.1231 150.978 73.0021Z" fill="white"/>
<path d="M117.034 84.5779L121.113 86.4266C121.352 86.5345 121.611 86.5903 121.873 86.5903C122.135 86.5903 122.394 86.5345 122.633 86.4266L126.712 84.5779H117.034Z" fill="white"/>
<path d="M140.499 45.9771C140.267 45.3443 139.847 44.7979 139.295 44.4118C138.743 44.0256 138.085 43.8184 137.412 43.8181H122.948C122.317 43.8187 121.699 44.001 121.168 44.3433C120.638 44.6856 120.217 45.1733 119.956 45.7483C119.761 46.1741 119.661 46.637 119.661 47.1052C119.663 47.9766 120.009 48.812 120.625 49.4282C121.242 50.0444 122.077 50.3911 122.948 50.3923H137.412C137.94 50.3924 138.461 50.2648 138.93 50.0205C139.399 49.7762 139.802 49.4224 140.106 48.989C140.409 48.5556 140.603 48.0556 140.671 47.5312C140.739 47.0069 140.68 46.4738 140.499 45.9771Z" fill="white"/>
<path d="M138.201 78.7927L125.436 84.5779L122.415 85.948C122.244 86.0247 122.06 86.0644 121.873 86.0644C121.686 86.0644 121.502 86.0247 121.331 85.948L118.31 84.5779H117.034L121.113 86.4266C121.352 86.5345 121.611 86.5903 121.873 86.5903C122.135 86.5903 122.394 86.5345 122.633 86.4266L126.712 84.5779L139.476 78.7927H138.201ZM138.201 78.7927L125.436 84.5779L122.415 85.948C122.244 86.0247 122.06 86.0644 121.873 86.0644C121.686 86.0644 121.502 86.0247 121.331 85.948L118.31 84.5779H117.034L121.113 86.4266C121.352 86.5345 121.611 86.5903 121.873 86.5903C122.135 86.5903 122.394 86.5345 122.633 86.4266L126.712 84.5779L139.476 78.7927H138.201ZM138.201 78.7927L125.436 84.5779L122.415 85.948C122.244 86.0247 122.06 86.0644 121.873 86.0644C121.686 86.0644 121.502 86.0247 121.331 85.948L118.31 84.5779H117.034L121.113 86.4266C121.352 86.5345 121.611 86.5903 121.873 86.5903C122.135 86.5903 122.394 86.5345 122.633 86.4266L126.712 84.5779L139.476 78.7927H138.201ZM181.04 60.7032C180.943 60.6067 180.837 60.5204 180.722 60.4455C180.464 60.278 180.168 60.1784 179.86 60.1559C179.553 60.1334 179.246 60.1887 178.966 60.3167L150.978 73.0022L138.201 78.7927L125.436 84.5779L122.415 85.948C122.244 86.0247 122.06 86.0644 121.873 86.0644C121.686 86.0644 121.502 86.0247 121.331 85.948L118.31 84.5779L115.162 83.15L96.1312 74.5274L96.126 74.5248L90.9376 72.1712L75.4464 65.15L64.7805 60.3167C64.6719 60.2665 64.5582 60.2286 64.4412 60.2036C64.1836 60.1392 63.9149 60.1339 63.6549 60.1878C63.239 60.273 62.8652 60.4989 62.5965 60.8275C62.3278 61.1561 62.1806 61.5673 62.1797 61.9918V128.031C62.1802 128.519 62.3743 128.986 62.7194 129.332C63.0645 129.677 63.5324 129.871 64.0205 129.871H179.726C180.214 129.871 180.682 129.677 181.027 129.332C181.372 128.986 181.566 128.519 181.566 128.031V61.9918C181.567 61.5098 181.378 61.0469 181.04 60.7032ZM181.04 128.031C181.04 128.379 180.902 128.714 180.655 128.96C180.409 129.207 180.074 129.345 179.726 129.345H64.0204C63.6718 129.345 63.3374 129.207 63.0909 128.96C62.8443 128.714 62.7058 128.379 62.7056 128.031V61.9918C62.7057 61.772 62.7609 61.5558 62.8661 61.3629C62.9713 61.1699 63.1231 61.0064 63.3078 60.8873C63.4377 60.8041 63.5809 60.7436 63.7311 60.7085C63.7754 60.6989 63.8202 60.6919 63.8653 60.6875C63.9167 60.68 63.9685 60.6765 64.0204 60.6769C64.2074 60.6772 64.3921 60.7175 64.5621 60.7953L75.6961 65.8416L91.0954 72.8207L95.4239 74.7824L96.126 75.1006L114.452 83.4077L117.034 84.5779L121.113 86.4266C121.352 86.5345 121.611 86.5903 121.873 86.5903C122.135 86.5903 122.394 86.5345 122.633 86.4266L126.712 84.5779L139.476 78.7927L151.373 73.3993L179.184 60.7953C179.384 60.7046 179.604 60.6655 179.823 60.6816C180.042 60.6977 180.254 60.7684 180.438 60.8873C180.459 60.8998 180.48 60.9139 180.499 60.9294C180.52 60.9429 180.539 60.9588 180.557 60.9767C180.708 61.0991 180.83 61.2538 180.914 61.4294C180.997 61.6051 181.041 61.7972 181.04 61.9918L181.04 128.031ZM138.201 78.7927L125.436 84.5779L122.415 85.948C122.244 86.0247 122.06 86.0644 121.873 86.0644C121.686 86.0644 121.502 86.0247 121.331 85.948L118.31 84.5779H117.034L121.113 86.4266C121.352 86.5345 121.611 86.5903 121.873 86.5903C122.135 86.5903 122.394 86.5345 122.633 86.4266L126.712 84.5779L139.476 78.7927H138.201ZM138.201 78.7927L125.436 84.5779L122.415 85.948C122.244 86.0247 122.06 86.0644 121.873 86.0644C121.686 86.0644 121.502 86.0247 121.331 85.948L118.31 84.5779H117.034L121.113 86.4266C121.352 86.5345 121.611 86.5903 121.873 86.5903C122.135 86.5903 122.394 86.5345 122.633 86.4266L126.712 84.5779L139.476 78.7927H138.201ZM95.4239 74.7824L96.126 75.1006V74.5274L95.4239 74.7824ZM138.201 78.7927L125.436 84.5779L122.415 85.948C122.244 86.0247 122.06 86.0644 121.873 86.0644C121.686 86.0644 121.502 86.0247 121.331 85.948L118.31 84.5779H117.034L121.113 86.4266C121.352 86.5345 121.611 86.5903 121.873 86.5903C122.135 86.5903 122.394 86.5345 122.633 86.4266L126.712 84.5779L139.476 78.7927H138.201Z" fill="#3F3D56"/>
<path d="M46.6574 129.871H16.9422C16.8724 129.871 16.8055 129.844 16.7562 129.794C16.7069 129.745 16.6792 129.678 16.6792 129.608C16.6792 129.539 16.7069 129.472 16.7562 129.422C16.8055 129.373 16.8724 129.345 16.9422 129.345H46.6574C46.7271 129.345 46.794 129.373 46.8433 129.422C46.8926 129.472 46.9203 129.539 46.9203 129.608C46.9203 129.678 46.8926 129.745 46.8433 129.794C46.794 129.844 46.7271 129.871 46.6574 129.871Z" fill="#3F3D56"/>
<path d="M30.0542 45.0949C29.5691 44.8488 29.1657 44.4672 28.8929 43.9966C28.6201 43.5259 28.4895 42.9862 28.5171 42.4429C28.5446 41.8996 28.729 41.3759 29.048 40.9352C29.367 40.4945 29.8069 40.1557 30.3145 39.9599C32.2635 39.2078 34.4484 40.7427 36.4914 40.3063C38.5276 39.8713 39.7055 37.437 39.2195 35.4123C38.7335 33.3877 36.9645 31.8627 35.0138 31.1344C33.7398 30.6599 32.3755 30.478 31.0217 30.6021C29.6679 30.7262 28.3594 31.1531 27.1929 31.8512C26.0384 32.5699 25.077 33.5596 24.3921 34.7343C23.7072 35.9091 23.3196 37.2334 23.2629 38.592C23.2364 39.9519 23.5687 41.2948 24.2262 42.4854C24.8838 43.676 25.8434 44.6724 27.0085 45.3741C27.5278 45.6735 28.1322 45.9138 28.7162 45.779C29.1956 45.6233 29.6472 45.3924 30.0542 45.0949Z" fill="#2F2E41"/>
<path d="M27.9612 31.6938C26.2425 29.4143 23.9226 27.5417 21.223 26.6132C18.5234 25.6848 15.4385 25.7593 12.9031 27.0714C10.3677 28.3834 8.4769 30.9892 8.27954 33.8372C7.95107 38.5771 12.0012 42.6062 12.4168 47.3392C12.5486 48.8394 12.3051 50.3489 11.7082 51.7316C11.1114 53.1142 10.18 54.3267 8.99797 55.2599C7.8159 56.193 6.42028 56.8174 4.93682 57.0769C3.45335 57.3364 1.92864 57.2228 0.5 56.7464C1.51756 57.584 2.69734 58.2021 3.96522 58.5619C5.23311 58.9218 6.5617 59.0155 7.86755 58.8373C9.17126 58.6416 10.4151 58.1583 11.5088 57.4223C12.6026 56.6863 13.5188 55.7161 14.1912 54.5822C15.1027 52.9984 15.477 51.1588 15.6224 49.3373C15.8507 46.4572 15.5415 43.5597 14.7105 40.7926C14.2562 39.2829 13.6401 37.7293 13.9282 36.1792C14.0924 35.373 14.4899 34.6328 15.0712 34.0505C15.6526 33.4683 16.3923 33.0697 17.1983 32.9044C18.5008 32.6603 19.8326 33.0578 21.0763 33.5153C22.3201 33.9729 23.5741 34.5023 24.8989 34.5326C26.2238 34.5629 27.6669 33.9564 28.1789 32.7341L27.9612 31.6938Z" fill="#2F2E41"/>
</g>
<defs>
<clipPath id="clip0_374_3381">
<rect width="200" height="129.871" fill="white" transform="translate(0.5)"/>
</clipPath>
</defs>
</svg>
