<svg width="22" height="22" viewBox="0 0 22 22" fill="none" xmlns="http://www.w3.org/2000/svg">
<path d="M5.99993 10.9999H10.9999M10.9999 10.9999H15.9998M10.9999 10.9999V15.9998M10.9999 10.9999V5.99993M1 17V5.00019C1 3.60008 1 2.8995 1.27248 2.36473C1.51216 1.89433 1.89433 1.51216 2.36473 1.27248C2.8995 1 3.60008 1 5.00019 1H17C18.4001 1 19.0998 1 19.6346 1.27248C20.105 1.51216 20.4878 1.89433 20.7275 2.36473C21 2.8995 21 3.59956 21 4.99967V16.9995C21 18.3996 21 19.0997 20.7275 19.6345C20.4878 20.1049 20.105 20.4878 19.6346 20.7275C19.1004 20.9997 18.4016 20.9997 17.0043 20.9997H4.99608C3.59871 20.9997 2.89898 20.9997 2.36473 20.7275C1.89433 20.4878 1.51216 20.105 1.27248 19.6346C1 19.0998 1 18.4001 1 17Z" stroke="black" stroke-width="1.5" stroke-linecap="round" stroke-linejoin="round"/>
</svg>
