<svg width="22" height="22" viewBox="0 0 22 22" fill="none" xmlns="http://www.w3.org/2000/svg">
<path d="M9.57642 12.4233L15.0251 6.97461M20.5988 3.64941L15.9996 18.5968C15.5874 19.9364 15.3811 20.6065 15.0256 20.8286C14.7173 21.0212 14.3355 21.0535 13.9997 20.9141C13.6125 20.7534 13.2982 20.1259 12.6712 18.872L9.75813 13.0458C9.65864 12.8469 9.60884 12.7478 9.54238 12.6616C9.48341 12.585 9.41535 12.5161 9.33884 12.4571C9.25458 12.3922 9.15716 12.3435 8.96704 12.2484L3.12748 9.32866C1.87352 8.70168 1.24648 8.3879 1.08581 8.00067C0.94646 7.66484 0.978239 7.28272 1.1709 6.97437C1.39305 6.61882 2.0631 6.41226 3.40307 5.99996L18.3505 1.40076C19.4039 1.07662 19.9309 0.914685 20.2867 1.04531C20.5966 1.1591 20.841 1.4032 20.9547 1.71313C21.0853 2.06879 20.9232 2.59546 20.5994 3.64785L20.5988 3.64941Z" stroke="black" stroke-width="1.5" stroke-linecap="round" stroke-linejoin="round"/>
</svg>
