<svg width="30" height="30" viewBox="0 0 30 30" fill="none" xmlns="http://www.w3.org/2000/svg">
<path d="M15 18.75L18.75 15M18.75 15L15 11.25M18.75 15H5M11.25 9.06073V9.00024C11.25 7.60011 11.25 6.89953 11.5225 6.36475C11.7622 5.89434 12.1443 5.51217 12.6147 5.27248C13.1495 5 13.8501 5 15.2502 5H21.0002C22.4004 5 23.0995 5 23.6342 5.27248C24.1046 5.51217 24.4881 5.89434 24.7278 6.36475C25 6.899 25 7.59874 25 8.99614V21.0045C25 22.4019 25 23.1006 24.7278 23.6349C24.4881 24.1053 24.1046 24.4881 23.6342 24.7278C23.1 25 22.4013 25 21.0039 25H15.2461C13.8487 25 13.149 25 12.6147 24.7278C12.1443 24.4881 11.7622 24.1049 11.5225 23.6345C11.25 23.0997 11.25 22.4001 11.25 21V20.9375" stroke="black" stroke-width="1.5" stroke-linecap="round" stroke-linejoin="round"/>
</svg>
